<?xml version="1.0" encoding="UTF-8" standalone="no"?>
<svg
   xmlns:dc="http://purl.org/dc/elements/1.1/"
   xmlns:cc="http://creativecommons.org/ns#"
   xmlns:rdf="http://www.w3.org/1999/02/22-rdf-syntax-ns#"
   xmlns:svg="http://www.w3.org/2000/svg"
   xmlns="http://www.w3.org/2000/svg"
   xmlns:sodipodi="http://sodipodi.sourceforge.net/DTD/sodipodi-0.dtd"
   xmlns:inkscape="http://www.inkscape.org/namespaces/inkscape"
   version="1.1"
   id="Layer_1"
   x="0px"
   y="0px"
   width="37.160938"
   height="5.6516638"
   viewBox="0 0 294.31464 44.761176"
   enable-background="new 0 0 612 792"
   xml:space="preserve"
   inkscape:version="0.92.4 (5da689c313, 2019-01-14)"
   sodipodi:docname="logo.svg"><metadata
   id="metadata3071"><rdf:RDF><cc:Work
       rdf:about=""><dc:format>image/svg+xml</dc:format><dc:type
         rdf:resource="http://purl.org/dc/dcmitype/StillImage" /><dc:title></dc:title></cc:Work></rdf:RDF></metadata><defs
   id="defs3069">
	
</defs><sodipodi:namedview
   pagecolor="#ffffff"
   bordercolor="#666666"
   borderopacity="1"
   objecttolerance="10"
   gridtolerance="10"
   guidetolerance="10"
   inkscape:pageopacity="0"
   inkscape:pageshadow="2"
   inkscape:window-width="1366"
   inkscape:window-height="705"
   id="namedview3067"
   showgrid="true"
   fit-margin-top="0"
   fit-margin-left="0"
   fit-margin-right="0"
   fit-margin-bottom="0"
   inkscape:zoom="22.627417"
   inkscape:cx="16.01159"
   inkscape:cy="5.6244041"
   inkscape:window-x="-8"
   inkscape:window-y="-8"
   inkscape:window-maximized="1"
   inkscape:current-layer="layer3"
   showguides="false"
   inkscape:pagecheckerboard="false"><inkscape:grid
     type="xygrid"
     id="grid14"
     originx="0.079203754"
     originy="-78.355202" /></sodipodi:namedview>


<g
   inkscape:groupmode="layer"
   id="layer1"
   inkscape:label="Pozadi 1"
   transform="translate(0.07920074,-2.8361168)" /><g
   inkscape:groupmode="layer"
   id="layer3"
   inkscape:label="Pozadi"
   transform="translate(0.07920074,-2.8361168)"><text
   xml:space="preserve"
   style="font-style:normal;font-weight:normal;font-size:49.78032303px;line-height:1.25;font-family:sans-serif;letter-spacing:0px;word-spacing:0px;fill:#10100f;fill-opacity:1;stroke:none;stroke-width:1.24450803"
   x="45.236576"
   y="46.843784"
   id="text5166"><tspan
     sodipodi:role="line"
     id="tspan5164"
     x="45.236576"
     y="46.843784"
     style="font-style:normal;font-variant:normal;font-weight:normal;font-stretch:normal;font-family:'Days One';-inkscape-font-specification:'Days One';fill:#10100f;fill-opacity:1;stroke-width:1.24450803">PRAV.TO</tspan></text>





<circle
   id="path20"
   cx="21.966118"
   cy="24.881435"
   style="fill:#10100f;fill-opacity:1;stroke-width:10.20624542"
   r="22.045319" /></g><g
   inkscape:groupmode="layer"
   id="layer2"
   inkscape:label="Kladivo"
   transform="translate(0.07920074,-2.8361168)"><path
     style="fill:#ffffff;fill-opacity:1;stroke:none;stroke-width:0.38509232;stroke-opacity:1"
     d="m 16.010156,10.725796 c -2.510285,-0.09868 -5.479217,0.193313 -9.0028125,1.09828 l 0.077344,1.763438 c 0,0 7.0130185,-0.07199 12.0192185,4.857188 0,0 1.848769,2.00295 0.07734,3.774374 -0.462111,0.53913 -0.696094,0.773438 -0.696094,0.773438 l -0.928125,0.912656 5.707968,5.630625 c 0,0 1.223657,-1.316145 1.60875,-1.624219 0.923837,-1.001239 3.31812,-0.919993 5.166562,1.005469 1.309315,1.232296 1.52848,2.61617 0.835313,3.078281 -0.385092,0.539129 -0.07442,1.704164 0.61875,2.320313 l 0.928125,0.99 c 0.923837,0.847203 2.231078,0.847203 3.078282,0 l 4.161093,-4.238437 c 0.847202,-0.924222 0.846818,-2.231078 0,-3.078282 l -0.850781,-0.928125 c -0.616147,-0.693166 -1.844034,-0.909728 -2.614219,-0.216563 -0.693166,0 -1.611676,-0.312301 -2.304843,-1.005468 -1.463352,-1.617387 -0.468292,-4.474698 -1.469532,-5.475938 l -4.08375,-4.08375 C 26.894653,14.834981 23.54101,11.021835 16.010156,10.725796 Z M 16.396875,25.220014 3.8671874,37.502201 a 22.045319,22.045319 0 0 0 6.4968746,6.218437 L 21.950156,30.912514 Z"
     id="path3059"
     inkscape:connector-curvature="0" /></g></svg>